<?xml version="1.0" standalone="no"?>
<!DOCTYPE svg PUBLIC "-//W3C//DTD SVG 20010904//EN"
 "http://www.w3.org/TR/2001/REC-SVG-20010904/DTD/svg10.dtd">
<svg version="1.0" xmlns="http://www.w3.org/2000/svg"
 width="260.000000pt" height="260.000000pt" viewBox="0 0 260.000000 260.000000"
 preserveAspectRatio="xMidYMid meet">
<metadata>
Created by potrace 1.14, written by Peter Selinger 2001-2017
</metadata>
<g transform="translate(0.000000,260.000000) scale(0.100000,-0.100000)"
fill="#000000" stroke="none">
<path d="M600 2516 c-90 -31 -137 -57 -206 -113 -54 -43 -77 -66 -145 -143
-41 -46 -111 -161 -154 -253 -119 -251 -116 -469 7 -588 32 -30 119 -86 142
-90 16 -3 23 -21 37 -104 10 -55 25 -124 34 -154 25 -81 90 -225 124 -276 17
-25 31 -49 31 -52 0 -3 10 -17 23 -32 66 -82 83 -109 102 -170 91 -286 329
-459 655 -477 242 -14 460 64 600 213 88 93 135 176 161 279 7 28 28 68 49 94
65 78 119 165 165 264 25 53 45 100 45 105 0 4 9 37 20 71 11 35 22 79 25 99
3 20 7 45 9 56 3 11 5 31 5 45 1 21 12 31 60 54 160 76 230 225 197 421 -10
60 -35 145 -57 193 -10 23 -29 63 -41 90 -12 26 -48 86 -80 133 -210 311 -506
433 -748 310 -61 -31 -76 -32 -160 -14 -59 12 -319 10 -405 -3 l-90 -14 -80
37 c-72 34 -89 38 -170 39 -70 1 -104 -3 -155 -20z"/>
</g>
</svg>
