<svg width="57" height="57" viewBox="0 0 57 57" fill="none" xmlns="http://www.w3.org/2000/svg">
<path d="M0 49.2341V41.2341H14C18.5 41.2341 21.5 37.7341 21.5 33.7341V25.2341C21.5 15.7341 28 9.73407 37 9.73407H44.5V2.23409C44.5 -0.26591 46 -0.76591 47.5 1.23409C49 3.23409 57 10.7341 57 13.7341C57 16.7341 50.5 21.7341 48.5 24.2341C46.5 26.7341 44.5 26.2341 44.5 24.2341V18.2341H37C34.5 18.2341 30 19.2341 30 25.2341V33.7341C30 43.7341 21 49.2341 14 49.2341H0Z" fill="#04A8BD"/>
<path d="M0 16.2341V8.23407H14C18.5 8.23407 21.1667 11.4007 21.5 12.7341C19.1554 14.7783 18.5 16.2341 18.5 19.7341C18 18.5674 15.5 16.2341 12.5 16.2341H0Z" fill="#04A8BD"/>
<path d="M44.5 48.7341H37C33 48.7341 30 44.2341 30 44.2341C32.2286 42.5298 33 40.2341 33 36.7341C33 36.7341 36 40.2341 39 40.2341H44.5V32.7341C44.5 30.2341 46 29.7341 47.5 31.7341C49 33.7341 57 41.2341 57 44.2341C57 47.2341 50.5 52.2341 48.5 54.7341C46.5 57.2341 44.5 56.7341 44.5 54.7341V48.7341Z" fill="#04A8BD"/>
</svg>
