<svg width="72" height="58" viewBox="0 0 72 58" fill="none" xmlns="http://www.w3.org/2000/svg">
<path fill-rule="evenodd" clip-rule="evenodd" d="M60.9524 0.722285C59.6944 -0.355982 57.8005 -0.210297 56.7222 1.04768C55.644 2.30566 55.7896 4.19956 57.0476 5.27782C63.1647 10.521 66.1143 19.1568 65.938 28.3802C65.762 37.5942 62.4627 46.8448 56.7987 52.9618C55.673 54.1776 55.746 56.0757 56.9618 57.2013C58.1775 58.327 60.0756 58.254 61.2013 57.0383C68.0373 49.6553 71.738 38.906 71.937 28.4949C72.1357 18.0933 68.8353 7.47911 60.9524 0.722285ZM52.0561 9.81545C50.8496 8.6799 48.951 8.73744 47.8154 9.94396C46.6799 11.1505 46.7374 13.0491 47.9439 14.1847C51.4016 17.439 53.2447 22.8943 53.1876 28.6579C53.1305 34.4345 51.1717 39.7894 47.9482 42.8114C46.7394 43.9446 46.6782 45.8431 47.8114 47.0519C48.9446 48.2606 50.8431 48.3219 52.0518 47.1887C56.8283 42.7107 59.1195 35.5656 59.1874 28.7173C59.2553 21.8558 57.0984 14.5612 52.0561 9.81545ZM42.9206 20.1954C41.6477 19.1347 39.756 19.3067 38.6953 20.5795C37.6346 21.8523 37.8066 23.744 39.0794 24.8047C39.2853 24.9762 39.6319 25.4173 39.9356 26.2598C40.228 27.0708 40.4137 28.0748 40.4383 29.1323C40.4914 31.4168 39.8099 33.0689 39.0476 33.7223C37.7896 34.8006 37.644 36.6945 38.7222 37.9524C39.8005 39.2104 41.6944 39.3561 42.9524 38.2778C45.6901 35.9312 46.5086 32.0833 46.4367 28.9928C46.3988 27.3628 46.1157 25.7106 45.58 24.2247C45.0556 22.7703 44.2147 21.2739 42.9206 20.1954ZM0 19.0001V38.0001H10.5L30.5 50.5001V6.00005L10.5 19.0001H0Z" fill="#04A8BD"/>
</svg>
